<?xml version="1.0" encoding="UTF-8"?>
<svg width="265px" height="54px" viewBox="0 0 265 54" version="1.1" xmlns="http://www.w3.org/2000/svg" xmlns:xlink="http://www.w3.org/1999/xlink">
    <!-- Generator: Sketch 40.1 (33804) - http://www.bohemiancoding.com/sketch -->
    <title>typography</title>
    <desc>Created with Sketch.</desc>
    <defs></defs>
    <g id="Page-1" stroke="none" stroke-width="1" fill="none" fill-rule="evenodd">
        <g id="typography" fill="#FFFFFF">
            <path d="M41.46875,30.3789062 L41.46875,22.890625 C41.46875,8.72265625 33.9101562,0.25 21.2539062,0.25 C8.59765625,0.25 1.0390625,8.72265625 1.0390625,22.890625 L1.0390625,30.3789062 C1.0390625,44.546875 8.59765625,53.0195312 21.2539062,53.0195312 C33.9101562,53.0195312 41.46875,44.546875 41.46875,30.3789062 L41.46875,30.3789062 Z M21.2539062,42.3320312 C16.3671875,42.3320312 14.1523438,38.5351562 14.1523438,30.2382812 L14.1523438,23.03125 C14.1523438,14.734375 16.3671875,10.9375 21.2539062,10.9375 C26.140625,10.9375 28.3554688,14.734375 28.3554688,23.03125 L28.3554688,30.2382812 C28.3554688,38.5351562 26.140625,42.3320312 21.2539062,42.3320312 L21.2539062,42.3320312 Z M65.7617188,42.15625 C61.3671875,42.15625 59.046875,39.0273438 59.046875,33.1210938 L59.046875,1.26953125 L46.1445312,1.26953125 L46.1445312,33.8242188 C46.1445312,45.953125 53.3515625,53.0195312 65.7617188,53.0195312 C78.171875,53.0195312 85.3789062,45.953125 85.3789062,33.8242188 L85.3789062,1.26953125 L72.4765625,1.26953125 L72.4765625,33.1210938 C72.4765625,39.0273438 70.15625,42.15625 65.7617188,42.15625 L65.7617188,42.15625 Z M116.703125,52 L116.703125,11.640625 L130.625,11.640625 L130.625,1.26953125 L89.9140625,1.26953125 L89.9140625,11.640625 L103.835938,11.640625 L103.835938,52 L116.703125,52 Z M136.425781,1.26953125 L136.425781,52 L149.328125,52 L149.328125,37.1289062 L155.515625,37.1289062 C167.257812,37.1289062 174.570312,30.2734375 174.570312,19.2695312 C174.570312,8.125 167.609375,1.26953125 156.289062,1.26953125 L136.425781,1.26953125 Z M149.328125,11.078125 L153.019531,11.078125 C158.925781,11.078125 161.527344,13.5742188 161.527344,19.1992188 C161.527344,24.8242188 158.925781,27.3203125 153.019531,27.3203125 L149.328125,27.3203125 L149.328125,11.078125 Z M199.285156,42.15625 C194.890625,42.15625 192.570312,39.0273438 192.570312,33.1210938 L192.570312,1.26953125 L179.667969,1.26953125 L179.667969,33.8242188 C179.667969,45.953125 186.875,53.0195312 199.285156,53.0195312 C211.695312,53.0195312 218.902344,45.953125 218.902344,33.8242188 L218.902344,1.26953125 L206,1.26953125 L206,33.1210938 C206,39.0273438 203.679688,42.15625 199.285156,42.15625 L199.285156,42.15625 Z M250.226562,52 L250.226562,11.640625 L264.148438,11.640625 L264.148438,1.26953125 L223.4375,1.26953125 L223.4375,11.640625 L237.359375,11.640625 L237.359375,52 L250.226562,52 Z" id="OUTPUT"></path>
        </g>
    </g>
</svg>